# xmcd
#
# Track frame offsets: 
#        150
#        20155
#        41787
#        59219
#        79608
#        103462
#        121375
#        140711
#        153600
#        167987
#        184194
#        203373
#        217329
#
# Disc length: 3178 seconds
#
# Revision: 0
# Processed by: cddbd v1.5.2PL0 Copyright (c) Steve Scherf et al.
# Submitted via: ExactAudioCopy v1.0b1
#
DISCID=d00c680d
DTITLE=Prince - Musicology
DYEAR=2004
DGENRE=Rock
TTITLE0=Musicology
TTITLE1=Illusion, Coma, Pimp and Circumstance
TTITLE2=A Million Days
TTITLE3=Life 'O' The Party
TTITLE4=Call My Name
TTITLE5=Cinnamon Girl
TTITLE6=What Do You Want Me 2 Do?
TTITLE7=The Marrying Kind
TTITLE8=If Eye Was The Man In UR Life
TTITLE9=On The Couch
TTITLE10=Dear Mr Man
TTITLE11=Reflection
TTITLE12=Magnificent
EXTD=
EXTT0=
EXTT1=
EXTT2=
EXTT3=
EXTT4=
EXTT5=
EXTT6=
EXTT7=
EXTT8=
EXTT9=
EXTT10=
EXTT11=
EXTT12=
PLAYORDER=
